FILE "Who Says Elephants Can't Dance？꞉ Inside IBM's Historic Turnaround [B072P6VZY1].m4b" MP3
TRACK 1 AUDIO
  TITLE "Chapter 1"
  INDEX 01 0:00:00
TRACK 2 AUDIO
  TITLE "Chapter 2"
  INDEX 01 63:06:53
TRACK 3 AUDIO
  TITLE "Chapter 3"
  INDEX 01 130:17:59
TRACK 4 AUDIO
  TITLE "Chapter 4"
  INDEX 01 194:53:74
TRACK 5 AUDIO
  TITLE "Chapter 5"
  INDEX 01 262:42:33
TRACK 6 AUDIO
  TITLE "Chapter 6"
  INDEX 01 327:46:55
